<svg height="396" viewBox="0 0 595 396" width="595" xmlns="http://www.w3.org/2000/svg" xmlns:xlink="http://www.w3.org/1999/xlink"><linearGradient id="a" x1="50%" x2="50%" y1="0%" y2="92.534743%"><stop offset="0" stop-color="#3456fa"/><stop offset="1" stop-color="#fff" stop-opacity="0"/></linearGradient><mask id="b" fill="#fff"><path d="m0 187.000909h295.109091v-186.99999991h-295.109091z" fill="#fff" fill-rule="evenodd"/></mask><mask id="c" fill="#fff"><path d="m.94372093.5811599h17.76046507v30.9769796h-17.76046507z" fill="#fff" fill-rule="evenodd"/></mask><g fill="none" fill-rule="evenodd"><g fill="url(#a)" opacity=".1" transform="translate(193 41)"><path d="m0 209h18v-73h-18z"/><path d="m29 209h18v-80h-18z"/><path d="m57 209h18v-128h-18z"/><path d="m86 209h18v-113h-18z"/><path d="m115 209h18v-172h-18z"/><path d="m144 209h18v-129h-18z"/><path d="m172 209h18v-120h-18z"/><path d="m201 209h18v-93h-18z"/><path d="m231 209h18v-115h-18z"/><path d="m260 207h18v-145h-18z"/><path d="m289 209h18v-113h-18z"/><path d="m317 209h18v-175h-18z"/><path d="m346 209h18v-209h-18z"/></g><path d="m543 375.5c0 11.31973-121.555594 20.5-271.5 20.5-149.948283 0-271.5-9.18027-271.5-20.5 0-11.322097 121.551717-20.5 271.5-20.5 149.944406 0 271.5 9.177903 271.5 20.5" fill="#3456fa" fill-opacity=".05"/><g transform="translate(469.632273 210.111269)"><path d="m79.7477981 98.7589517c1.9533058 0 5.0372196-.4762987 7.7314345-2.9780697 3.8873672-3.5987013 5.5712515-9.9974616 4.9987308-19.0182703-.3800767-6.0908501-2.6268595-12.2490555-5.008353-18.7825266-4.0124557-10.9789256-8.5541322-23.4252361-6.1822609-39.8840024l-4.4117769-.7216647c-2.554693 17.719274 2.4296045 31.368359 6.4228158 42.3328513 2.357438 6.4420602 4.3925325 12.0133117 4.7293094 17.3680637.4522432 7.3176801-.7312869 12.5329103-3.435124 15.0779812-2.5643152 2.4151711-5.7685065 1.7945395-5.9080283 1.7656729l-.8900532 4.661954c.0769776.0192444.83232.1780106 1.9533058.1780106" fill="#2944c8"/><path d="m45.5062515 136.500572-4.3444215 7.067503 36.525856 12.465555s2.4440377-2.487338-6.5238489-7.476446c-10.4304605-5.821429-25.6575856-12.056612-25.6575856-12.056612" fill="#7189fb"/><path d="m39.0228158 136.500572 4.3444215 7.067503-36.52585595 12.465555s-2.43922669-2.487338 6.52384885-7.476446c10.4352716-5.821429 25.6575856-12.056612 25.6575856-12.056612" fill="#7189fb"/><path d="m38.445003 144.432629h7.6352125v-28.948376h-7.6352125z" fill="#2944c8"/><path d="m45.995059 137.990088-3.7189787 6.740348 31.2721369 11.897846s2.0832055-2.371872-5.5856847-7.13967c-8.934209-5.552007-21.9674735-11.498524-21.9674735-11.498524" fill="#2944c8"/><path d="m38.5340083 137.990088 3.7141676 6.740348-31.2673258 11.897846s-2.08320547-2.371872 5.5904958-7.13967c8.9293979-5.552007 21.9626624-11.498524 21.9626624-11.498524" fill="#2944c8"/><g fill="#0f1d5e"><path d="m70.0034002 159.306139c0 1.558796 1.1931523 2.824114 2.6557261 2.824114s2.6557261-1.265318 2.6557261-2.824114c0-1.563607-1.1931523-2.828926-2.6557261-2.828926s-2.6557261 1.265319-2.6557261 2.828926"/><path d="m9.40906434 159.306139c0 1.558796 1.19315226 2.824114 2.66053716 2.824114 1.4625738 0 2.650915-1.265318 2.650915-2.824114 0-1.563607-1.1883412-2.828926-2.650915-2.828926-1.4673849 0-2.66053716 1.265319-2.66053716 2.828926"/><path d="m76.4262161 159.306139c0 1.558796 1.1883412 2.824114 2.655726 2.824114 1.4577627 0 2.650915-1.265318 2.650915-2.824114 0-1.563607-1.1931523-2.828926-2.650915-2.828926-1.4673848 0-2.655726 1.265319-2.655726 2.828926"/><path d="m2.99105962 159.306139c0 1.558796 1.18834121 2.824114 2.65572609 2.824114 1.4577627 0 2.6461039-1.265318 2.6461039-2.824114 0-1.563607-1.1883412-2.828926-2.6461039-2.828926-1.46738488 0-2.65572609 1.265319-2.65572609 2.828926"/></g><path d="m39.5707999 115.286998h5.5808737v-10.411216h-5.5808737z" fill="#2944c8"/><path d="m35.3812957 99.3742911c0 3.2041909 2.4392267 5.7973729 5.446163 5.7973729h3.0742916c3.0021251 0 5.4365407-2.593182 5.4365407-5.7973729 0-3.2041912-2.4344156-5.7973731-5.4365407-5.7973731h-3.0742916c-3.0069363 0-5.446163 2.5931819-5.446163 5.7973731" fill="#2944c8"/><path d="m.85829988 94.0695745c-.12508855-.6831759-.20687721-4.960242-.20687721-5.7011511 0-4.6763873 2.83854781-8.4723436 6.34583825-8.4723436h70.73276268c3.4976683 0 6.3458383 3.7959563 6.3458383 8.4723436 0 .7409091-.0769776 5.0179752-.2116883 5.7011511z" fill="#3456fa"/><path d="m84.7282468 96.3673549c0 1.4337072-.784209 2.5979929-1.7608619 2.5979929h-81.21133413c-.9718418 0-1.75605077-1.1642857-1.75605077-2.5979929s.78420897-2.5931818 1.75605077-2.5931818h81.21133413c.9766529 0 1.7608619 1.1594746 1.7608619 2.5931818" fill="#2944c8"/><path d="m80.7672698 50.5724375c-1.7464286.1347108-12.8311984.341588-14.7412043.3704546-12.1384002.1539551-22.5881051-2.2756494-23.1702479-5.4557851-2.3959268-13.2305195-2.501771-26.7978159-.3127214-40.03314645.5147875-3.18013577 11.1232586-5.60974026 23.516647-5.44616293 1.9484947.02405549 13.2593861.23574381 15.0394923.37526565-3.8007674 16.49725503-3.9066115 33.68249703-.3319657 50.18937423" fill="#3456fa"/><path d="m82.4352774.38017661c1.3567297.01924439 2.304516.7024203 2.1168832 1.52992916-3.3822019 15.52060213-3.5072905 31.61853603-.3800768 47.13432703.1683885.83232-.7697757 1.520307-2.0976387 1.5347403-1.3326741.0192444-2.5595041-.6446872-2.7278926-1.4770071-3.1657024-15.5542798-3.0694805-31.6907025.2886659-47.24498231.1828217-.83231995 1.4385183-1.49625147 2.800059-1.47700708" fill="#2944c8"/><path d="m82.9755638 50.5445332c-.3560213.1202774-2.7615703.2213105-3.1801358.2261216-2.6461039.0384887-5.3691854-2.4488489-5.8984062-5.5760626-2.1986717-13.0332645-2.1457497-26.3984947.1731996-39.43175916.5532762-3.13202479 3.3437131-5.60974026 6.037928-5.57606257.4281877.0048111 2.8770366.10584415 3.24268.2261216-3.8103896 16.47801063-3.9306671 33.64881933-.3752656 50.13164113" fill="#7189fb"/></g><g transform="matrix(-1 0 0 1 594.333333 135)"><path d="m5.50818259 22.9934178c-3.07193969-3.6058339-5.15109273-8.0248331-4.80366503-12.9764485 1.00103592-14.26698302 20.86116954-11.12842854 24.72437674-3.92768069 3.8632071 7.20074789 3.4041577 25.46604199-1.5886934 26.75301639-1.9911421.5132437-6.2328668-.7439977-10.5499529-3.346101l2.709752 19.1704627h-16z" fill="#e7e8ed" transform="translate(82 25.333333)"/><path d="m98.3093 23.1235045c-2.1087537-.3458126-7.7866659-.5835684-8.8337744-.5834149-.6691517 0-1.3943083.1528759-1.7906273-.461544-.3245532-.5031397-.2056575-1.3540874-.3025184-1.9379628-.1124689-.6782716-.2722207-1.3477943-.4338087-2.0156287-.4598218-1.9003578-1.1551398-3.7083147-2.128034-5.4057589-1.8255157-3.18460734-4.4998273-5.67912434-7.8760367-7.13067783-3.7283059-1.60274098-7.9471904-1.96973521-11.9575101-1.64464371-4.2915686.34780799-8.1764128 1.76451928-12.2283537 3.0977321-3.8612793 1.27043546-7.9055693 1.77050539-11.9440445 1.15009942-4.068926-.62501065-7.1433821-2.83035278-10.5754434-4.92349383-3.5134673-2.14287175-7.5286837-3.54438755-11.6822291-3.22221236-3.8771933.3008401-7.4506441 1.90173921-10.65669641 4.04031325-2.99962981 2.00089365-5.47471078 4.40822841-6.87207952 7.79636326-1.50325784 3.6446165-1.50188067 7.6451758.97013993 10.8661603 3.58309094 4.6688542 10.2349762 5.8762053 15.7690584 5.7561762 3.2010027-.0692239 6.3447763-.6535597 9.3668999-1.7164769 4.0303652-1.4176323 7.5132288-3.8203623 11.2837679-5.7698369 1.7695107-.9147995 3.5985458-1.6661323 5.5157199-2.2073375 1.8604039-.5253957 3.6928055-.7663748 5.3772377.3574779 1.7819053 1.1889323 3.3786577 2.3568366 5.4171757 3.1011089 1.9555817.7140347 4.0269988 1.1134153 6.1105043 1.0972989 4.0537772-.0313119 8.0498662-1.2943799 11.9870429-2.1404159 3.2106429-.6897834 6.6459175-1.3772644 9.9191452-.7141883 1.3658468.2767422 3.3609075.8480314 3.8542404 2.2675055-8.3029594 1.5048145-11.5639379 11.7732853-9.2232075 19.3113251 1.2633242 4.0685554 8.8573393 8.8246537 11.8099923 6.6857526 1.8705906-1.3550553.7349499-3.1339975 0-4.3083483-1.407468-2.2489332-1.8890185-5.1377657.7153634-6.7035156 2.2464708-1.3504037 4.6084799 1.8564467 4.6531615 1.8529164.6174313-.0486563 5.9525743-3.0659141 9.6283913-7.4688586 3.626206.2149578 4.176354-2.1760696 3.310487-4.1314806-.865867-1.9554111-6.270331-4.4163133-9.183964-4.8944342z" fill="#fa345b"/></g><g transform="matrix(-1 0 0 1 529.666667 264.333333)"><path d="m98.6355294 13.8374174c5.4911986-3.2973195 14.7041296.9390593 14.6978036 5.6548595-.018926 14.1096635-12.895545 80.6084571-13.5678504 84.8121971s-7.8743823 5.314106-8.2937828.013776c-.6673369-8.43372-1.9071663-37.6295024-.6666666-51.1431485.5120522-5.5781493 1.0635051-10.8905923 1.6063991-15.6300385-6.7568308 12.2020057-17.2066131 29.6722687-31.349347 52.410789l-7.6777034-3.5077355c6.0290618-19.8640507 10.9728019-33.887542 14.8312203-42.0704737 6.6065491-14.0111659 12.8012688-26.0098615 15.4084265-30.2363047 4.1010606-6.64819786 11.2396125-4.32854308 15.0115007-.3039207z" fill="#e7e8ed"/><path d="m65.8795776 82.2267581 3.4117006-67.6734513c2.4589594-11.70169019 23.2711519-6.27093327 23.2625934 0-.0194305 14.2369599-8.5715266 63.4178846-8.5773156 67.6595506z" fill="#3f4a7e" transform="matrix(.93969262 .34202014 -.34202014 .93969262 20.14994 -24.383114)"/><path d="m1.54911379 5.84002575c-.58465509 1.67171909-.87698264 2.94881978-.87698264 3.83130206 0 1.21721819.20191774 2.99344229.60575323 5.32867219h37.90941472c.9851313-3.2707076.4164564-5.0364574-1.7060247-5.29724937-2.1224812-.26079198-3.8856623-.49626625-5.2895434-.70642282l-17.3096268-7.74965511c-.5040718-.22567689-1.09565.00000679-1.3213269.5040786-.0042809.00956181-.0084113.0191903-.0123896.02888191l-1.0042609 2.44648594c-1.9648624.92067106-3.56151708 1.38100658-4.78996407 1.38100658-.88067192 0-2.05741481-.31517388-3.53022867-.94552165l.0000054-.00001262c-1.01548065-.4346143-2.19101487.03627092-2.62562916 1.05175157-.01782919.04165807-.0342375.08391003-.04919651.12668272z" fill="#fa345b" transform="matrix(.8660254 .5 -.5 .8660254 53.496479 76.950961)"/><path d="m1.54911379 5.84002575c-.58465509 1.67171909-.87698264 2.94881978-.87698264 3.83130206 0 1.21721819.20191774 2.99344229.60575323 5.32867219h37.90941472c.9851313-3.2707076.4164564-5.0364574-1.7060247-5.29724937-2.1224812-.26079198-3.8856623-.49626625-5.2895434-.70642282l-17.3096268-7.74965511c-.5040718-.22567689-1.09565.00000679-1.3213269.5040786-.0042809.00956181-.0084113.0191903-.0123896.02888191l-1.0042609 2.44648594c-1.9648624.92067106-3.56151708 1.38100658-4.78996407 1.38100658-.88067192 0-2.05741481-.31517388-3.53022867-.94552165l.0000054-.00001262c-1.01548065-.4346143-2.19101487.03627092-2.62562916 1.05175157-.01782919.04165807-.0342375.08391003-.04919651.12668272z" fill="#fa345b" transform="translate(88 96)"/><path d="m115.180249 24.2886852c0 17.7113148-8.411183 59.0248437-8.416505 62.9247225l-18.0970773.0139007c2.6488515-36.8636544 3.5881143-55.4940465 2.8177886-55.8911765-1.1554887-.5956949-47.3672302 4.6138885-61.2268834 4.6138885-19.9856885 0-28.25336754-12.603089-28.92423857-35.9500204h39.59090527c8.0610637.86257796 50.1083117 9.3435045 65.7238254 12.2589419 6.685269 1.2481487 8.532185 7.150732 8.532185 12.0297433z" fill="#2944c8"/></g><g transform="matrix(-1 0 0 1 535.666667 179.666667)"><path d="m74.9708285 16.2272151 25.2691845-7.58561222c4.713987-3.66963026 9.160358-6.35269164 13.339114-8.04918414 1.215328-.22875433 3.227361-.09589935.713074 2.75625879s-5.030667 5.96527728-4.312796 7.16119947c.717871 1.1959222 3.333448.2943886 4.090445 2.1888016.504665 1.2629421-3.828728 2.1674876-13.000179 2.7136366l-19.6472906 11.5627251zm-2.2329251 44.551535 21.265514 15.6157325c5.7676453 1.5563188 10.5863266 3.4926422 14.4560436 5.8089703.914094.8329367 2.018863 2.5197719-1.772107 2.2282445-3.790971-.2915273-7.7916138-.4276763-8.3146941.865365-.5230802 1.2930414 1.7710101 2.8393771.7136367 4.5840286-.7049153 1.1631009-4.0352186-1.7533316-9.9909097-8.7492975l-21.0584374-8.7324022z" fill="#e7e8ed"/><path d="m31.9899572 25.0999487c16.7745736 17.8600192 37.2339158 29.5144691 65.137221 39.8518922l-6.1964733 12.3905726c-28.789796-2.714466-44.1813389-4.8824053-56.2474586-22.7699722-3.0283514-4.4894167-8.4432233-19.9366566-11.6871299-27.9584318z" fill="#e12e52" transform="matrix(.96592583 .25881905 -.25881905 .96592583 15.303568 -13.799779)"/><path d="m7.33333333 90.6666667h51.33333337c-11.6278595-35.4630793-17.5678116-59.8027323-17.8198563-73.018959-.0128495-.6737761-1.2572247-1.8610646-1.8077636-1.7055786-4.0260312 1.1370524-8.3342023.7118982-12.9245134-1.2754624-12.1695434 19.5722712-16.37798253 43.6696999-18.78120007 76z" fill="#fff"/><path d="m30.4950014 14.6982636c14.7144903.1204899 38.5876655 2.8075073 66.1201156-6.03159693l2.7182163 13.58232023c-20.8087666 13.3831655-41.8793864 23.7503902-60.3424995 22.2781825 8.0174625 34.3908966 7.6478187 62.5434746-10.0525189 62.5434746-8.452792 0-17.5764243 0-27.37089701 0-4.34713026-29.2146793 7.07797874-69.7215672 17.66988551-90.1529145.404473-.7802116 1.2656367-2.2510628 3.2940303-2.2510628h7.9531752c.003498.0105323.0069955.0210646.0104925.0315969z" fill="#fa345b"/></g><g transform="translate(239 198)"><g mask="url(#b)"><g transform="translate(117.424715)"><path d="m91.7284663 46.9327273c.009091-.0227273.0181819-.0454546.0318182-.0681818l-.0318182-2.0954546h-81.4954545v2.0954546s-.0181818.0454545 0 .0681818l.2045455.3909091c1.0454545 1.8136363 2.9318181 2.1454545 5.0772727 2.1454545h70.9272727c2.15 0 4.0272727-.3318182 5.0772727-2.1454545z" fill="#e7e8ed"/><path d="m72.0907391 47.2877273s-.0181818.0363636 0 .0636363l.2.3090909c.3136363.4727273.7272727.8181819 1.1863636 1.0681819h12.3954546c2.0681818 0 3.8772727-.2636364 4.8818181-1.7318182l.1954546-.3227273c.0181818-.0181818.0272727-.0318182.0363636-.05l-.0181818-1.0363636h-18.8772727z" fill="#cfd1db"/><path d="m20.3661936 46.7372727h40.7181818v-1.4818182h-40.7181818z" fill="#cfd1db"/><path d="m71.6380118 44.6954545-10.5681818-42.65454541c-.2818182-1.13181818-1.3590909-2.04090909-2.4136364-2.04090909h-57.18636362c-1.05 0-1.68181818.90909091-1.40454546 2.04090909l10.56818178 42.65454541z" fill="#e7e8ed"/><path d="m39.3002845 22.35c.5409091 2.1772727-.6818182 3.9409091-2.7272727 3.9409091s-4.1409091-1.7636364-4.6772727-3.9409091c-.5409091-2.1818182.6772727-3.95 2.7272727-3.95 2.0409091 0 4.1363636 1.7681818 4.6772727 3.95" fill="#fff"/></g></g><path d="m8.34090909 195.995909h-8.34090909l13.7590909-141.9727272h12.1z" fill="#7189fb" mask="url(#b)"/><path d="m25.0531818 60.5645455-5.3090909 42.9999995-6.2909091-46.3363632.3090909-3.2045454h10.5727273z" fill="#3456fa" mask="url(#b)"/><path d="m120.099545 195.995909h-8.340909l13.759091-141.9727272h12.1z" fill="#7189fb" mask="url(#b)"/><path d="m136.803182 60.5645455-5.3 42.9999995-6.295455-46.3363632.313637-3.2045454h10.572727z" fill="#3456fa" mask="url(#b)"/><path d="m207.675 195.995909h8.340909l-13.759091-141.9727272h-12.095454z" fill="#7189fb" mask="url(#b)"/><path d="m190.966818 60.5645455 16.190909 43.8181815-4.590909-47.1545452-.313636-3.2045454h-10.568182z" fill="#3456fa" mask="url(#b)"/><path d="m113.359091 57.71h100.568182v-8.2954545h-100.568182z" fill="#4766fa" mask="url(#b)"/><path d="m3.81818182 57.71h114.19545418v-8.2954545h-114.19545418z" fill="#7189fb" mask="url(#b)"/></g><g transform="translate(173)"><path d="m26.7076744 85.5032558c20.5302326 2.227907 58.8069768 3.0976744 70.7837209-5.3255814 12.0720927-8.5813953 2.5186047-52.9930232-9.5767441-62.4139535-12.1790698-9.26279067-56.8744186-6.7418604-69.9953489-5.1418604-32.6953488 3.9883721-15.1093023 70.2860465 8.7883721 72.8813953" fill="#3456fa"/><path d="m18.704186 9.20069767s-.888372 14.22790703-17.76046507 22.35813953c0 0 8.74186047-19.772093.88604651-29.47209301-4.71395349-5.82093024 16.87441856 7.11395348 16.87441856 7.11395348" fill="#3456fa" mask="url(#c)" transform="translate(13.953488 66.517674)"/><path d="m46.1888372 60.9144186c.7697675.3348837 1.555814.627907 2.3581395.8744186-1.8093023.6790698-3.616279 1.3581395-5.4232558 2.0372093 1.7860465-.6837209 3.5744186-1.3627907 5.3604651-2.0488372-1.7860465.6860465-3.5744186 1.3651163-5.3604651 2.0488372-.8-.2465116-1.5860465-.5395349-2.3581395-.8744186-.372093-.4069767-.6813954-.7790698-1.0325581-1.2488372.3511627.4697674.6604651.8418605 1.0325581 1.2488372-10.0186047-4.3395349-17.3023256-15.6604651-17.3255814-28.3976744 0-.9837209.0395349-1.9511628.1232558-2.9023256 1.8069768-.6790698 3.6139535-1.3581395 5.4232558-2.0372093-.0860465.9488372-.1255814 1.9162791-.1232558 2.9.0209302 12.7325581 7.2976744 24.0465116 17.3069768 28.3930233-.0023256.0023255-.0046512.0046511-.0093024.0046511-.2279069.0209303-.5255814-.0930232-.7534883-.1325581-.8046512-.1395349-1.9511628-.2534884-2.7627907-.155814-.4372093.0534884-.8023256.1325582-1.0883721.2372093-.4093024.1488372-.5069768.1883721-1.1023256.4883721-.3906977.1953489-.3906977.1953489-.7511628.3418605.3604651-.1465116.3604651-.1465116.7511628-.3418605.5953488-.3.6930232-.3395349 1.1023256-.4883721.2860465-.1046511.6511628-.1837209 1.0883721-.2372093.2279069-.0279069.7976744-.0581395 1.4790697-.0023256.6790698.0534884 1.1046512.127907 2.0372093.2906977-1.9279069.7255814-3.7279069 1.4069768-5.3883721 2.0372093 3.6930233-1.4023256 5.3883721-2.0372093 5.3883721-2.0372093.0093024 0 .0186047 0 .027907.0023256" fill="#3456fa"/><g fill="#ffc910"><path d="m44.2334884 64.0281395.1813953-.0674418.1883721-.072093.1930233-.0720931.1976744-.0744186.2023256-.0767442.2046511-.0767441.2069768-.0767442.2069767-.0767442.2093023-.0790698.2023256-.0767442.2046512-.0767442.2023256-.0767441.1976744-.0744187.1930232-.0744186.1883721-.0674418.1813954-.0697675-.1813954.0697675-.1883721.0674418-.1930232.0744186-.1976744.0744187-.2023256.0767441-.2046512.0767442-.2023256.0767442-.2093023.0790698-.2069767.0767442-.2069768.0767442-.2046511.0767441-.2023256.0767442-.1976744.0744186-.1930233.0720931-.1883721.072093zm4.3116279-2.2395348c.8.2511627 1.6139535.4558139 2.4395349.6139534-1.8046512.6790698-3.6116279 1.3581396-5.4209303 2.0372093-.8255814-.1581395-1.6395349-.3627907-2.4418604-.6116279l2.7116279-1.0186046c.2116279-.0813954.4953488-.1883721.7093023-.2674419.2093023-.0790697.4883721-.1837209.6976744-.2604651.1023256-.0395349.2395349-.0906977.3372093-.1302326.1976744-.072093.4604651-.1697674.6581396-.244186.0906976-.0348837.2116279-.1139535.3093023-.1186046z"/><path d="m50.9853488 62.4018605c.8302326.1581395 1.6720931.272093 2.5232559.3348837l-5.4209303 2.0395349c-.8511628-.0627907-1.6953488-.1767442-2.5232558-.3372093.9046512-.3395349 1.8069767-.6790698 2.7093023-1.0186047.2139535-.0790698.4976744-.1860465.7116279-.2651163.2069768-.0790697.4883721-.1837209.6953489-.2627907.1023256-.0395348.2372093-.0906976.3395349-.1279069.1-.0372093.2348837-.0860465.3325581-.1232559.1906977-.072093.4325581-.2232558.6325581-.2395348"/><path d="m53.5086047 62.7369767c.8488372.0627907 1.688372.0767442 2.5139534.0418605-1.8069767.6790698-3.616279 1.3581395-5.4209302 2.0372093-.8255814.0348837-1.6674419.0209302-2.5139535-.0418605 1.6255814-.6116279 3.7116279-1.7906976 5.4209303-2.0372093"/><path d="m56.0225581 62.7788372c.2186047-.0093023.4348838-.0232558.6534884-.0395349-.7697674.2860465-4.6744186 1.7534884-5.4302325 2.0395349-.2139535.0162791-.427907.027907-.6441861.0372093.0930233-.0348837.2162791-.0813953.3093023-.1162791.9186047-.3465116 1.8372093-.6906976 2.7534884-1.0372093.1069767-.0395348.2511628-.0930232.355814-.1325581.2093023-.0767442.4883721-.1813953.6953488-.2627907.2023256-.0744186.472093-.1744186.6744186-.2511628.1906977-.072093.4348837-.1976744.6325581-.2372093"/><path d="m58.4639535 62.5302326c-.0046512 0-.0093023.0023255-.0139535.0046511l-5.4093023 2.0325582c-.5906977.0953488-1.1906977.1651162-1.7953489.2116279.7581396-.2860465 4.6604652-1.7534884 5.4302326-2.0395349.6023256-.0441861 1.1976744-.1139535 1.7883721-.2093023"/><path d="m58.4639535 62.5302326c.8-.1302326 1.5860465-.3046512 2.3558139-.5232559-1.8093023.6790698-3.616279 1.3581396-5.4232558 2.0372093-.7697674.2209303-1.5558139.3930233-2.3558139.5232559l5.4093023-2.0325582c-1.6953488.6511628-3.3953488 1.3-5.0906977 1.9511628.6232558-.2395349 1.2511628-.4790698 1.8744186-.7186046.2-.0767442.4697675-.1790698.6674419-.255814.2-.0767442.4674419-.1790698.6674419-.2558139.6279069-.2418605 1.2581395-.4813954 1.8860465-.7232559.0023255 0 .0046511-.0023255.0093023-.0023255"/><path d="m60.8190698 62.007907c.5465116-.1581396 1.0883721-.3372093 1.6209302-.5348837l-5.4232558 2.0372093c-.5302326.2-1.072093.3790697-1.6209302.5348837l2.7116279-1.0186047c.1069767-.0418604.2465116-.0953488.3534883-.1325581.1069768-.0418605.2488372-.0953488.355814-.1348837.1069767-.0395349.244186-.0906977.3511628-.1302326.2046511-.0790698.4790697-.1813953.6837209-.2581395.1-.0372093.2348837-.0883721.3348837-.1255814.1883721-.072093.4395349-.1744186.6325582-.2372093"/></g><path d="m62.4430233 61.4718605c-1.8069768.6790697-3.6162791 1.3581395-5.4232559 2.0372093 9.1627907-3.4418605 15.6441861-13.2488372 15.6232559-25.2930233-.027907-15.6790698-11.0627907-29.2116279-24.6511628-30.2232558l5.4209302-2.0372093c13.5906977 1.0116279 24.6232558 14.5418605 24.6511628 30.2255814.0209302 12.0395349-6.4604651 21.8465116-15.6209302 25.2906977" fill="#ffa601"/><path d="m47.992093 7.99372093c-13.5860465-1.01162791-24.5767442 10.87674417-24.5534883 26.55813957.0279069 15.6813953 11.0627906 29.2116279 24.6488372 30.2232558 13.5883721 1.0116279 24.5790697-10.8790698 24.5558139-26.5581396-.027907-15.6813953-11.0627907-29.21162786-24.6511628-30.22325577" fill="#2944c8"/><path d="m49.2388372 64.7751163c-13.5860465-1.0116279-24.6209302-14.5418605-24.6465116-30.2232558-.0232558-14.8395349 9.8232558-26.2790698 22.3930232-26.6046512-13.1139535-.36744186-23.5697674 11.3139535-23.5465116 26.6046512.027907 15.6813953 11.0627907 29.2116279 24.6488372 30.2232558.7255814.0534884 1.4465116.0627907 2.1581396.0465116-.3348838-.0093023-.6674419-.0209302-1.0069768-.0465116" fill="#3456fa"/><path d="m39.0623256 9.25883721 5.4209302-2.0372093c2.7674419-1.03953489 5.7767442-1.5 8.9302326-1.26511628l-5.4209303 2.0372093c-3.1534883-.23488372-6.1651162.2255814-8.9302325 1.26511628" fill="#ffa601"/><path d="m64.3051163 67.0927907-5.4209303 2.0372093c11.0604652-4.1581395 18.8813954-15.9953488 18.8581396-30.5325581-.0302326-18.9302326-13.355814-35.26511632-29.7604651-36.48604655l5.4232558-2.03953488c16.4023256 1.22325581 29.727907 17.55581393 29.7581395 36.48837213.0255814 14.5372093-7.7976744 26.3744186-18.8581395 30.5325581" fill="#2944c8"/><path d="m48.0874419 64.7751163c-13.5860466-1.0116279-24.6209303-14.5418605-24.6488372-30.2232558-.0232559-15.6790698 10.9674418-27.56976748 24.5534883-26.55813957 13.5883721 1.01162791 24.6232558 14.54186047 24.6511628 30.22325577.0232558 15.6790698-10.9674418 27.5697675-24.5558139 26.5581396m-.1046512-62.6651163c-16.4046512-1.22093023-29.6767442 13.1325581-29.644186 32.0627907.0325581 18.9302326 13.3534883 35.2627907 29.7581395 36.4860465 16.4046511 1.2209302 29.6767442-13.1325581 29.6465116-32.0627907-.0325581-18.927907-13.3558139-35.26279069-29.7604651-36.4860465" fill="#7189fb"/><path d="m37.1976744 3.63790698c1.8069768-.67906977 3.6139535-1.35813954 5.4209303-2.03720931 3.3418604-1.25813953 6.9790697-1.8116279 10.7860465-1.52790697l-5.4209303 2.0372093c-3.8069767-.28139535-7.444186.27209302-10.7860465 1.52790698" fill="#3456fa"/><path d="m49.4069767 15.3237209.0093024 4.7465117c1.6651162.4186046 2.9953488 1.3837209 4.0046511 2.8930232 1.0023256 1.5093023 1.5674419 3.3930233 1.6860465 5.6581395l-3.7093023-.2744186c-.0790697-1.2837209-.4604651-2.3255814-1.1418604-3.1255814-.683721-.7976744-1.5744187-1.244186-2.6651163-1.3255813-1.172093-.0883721-2.1069768.2604651-2.8046512 1.0418604-.7023256.7790698-1.0488372 1.855814-1.0488372 3.2395349.0023256.5069767.0627907.9674419.1883721 1.3930233.1186046.4279069.3093023.8209302.5674419 1.1767441.516279.7418605 1.6209302 1.3883721 3.3046511 1.9395349 1.0046512.327907 1.772093.6232558 2.3.8906977 1.8441861.8906977 3.2372093 2.1069767 4.1930233 3.6488372.9581395 1.5441861 1.4348837 3.3372093 1.4395349 5.3883721.0046511 2.5953488-.5767442 4.7604651-1.7348838 6.4813954-1.1627907 1.7302325-2.6697674 2.6674418-4.5255814 2.8302325l.0093024 5.7-3.4534884-.2558139-.0116279-5.4790698c-2.072093-.4813954-3.7139535-1.6186047-4.9372093-3.4069768-1.2162791-1.7930232-1.8348837-4.0023255-1.8534884-6.6302325l3.5697675.2651163c.0813953 1.7744186.5139534 3.1302325 1.2930232 4.0790697.7837209.9488372 1.9116279 1.4813954 3.3883721 1.5906977 1.3534884.1 2.4325581-.2930232 3.2348837-1.1883721.8023256-.8883721 1.2023256-2.1255814 1.2-3.7162791-.0023256-.5674418-.0511628-1.0860465-.1488372-1.5697674-.0953488-.4813953-.2348837-.9023256-.4186046-1.2581395-.6046512-1.1860465-1.855814-2.1116279-3.7465117-2.7744186-.3116279-.1069768-.5418604-.1930233-.6953488-.2465117-2.355814-.8790697-4.0953488-2.0302325-5.2069767-3.4627907-1.1186047-1.4348837-1.6744186-3.2372093-1.6790698-5.4046511-.0046512-2.3627907.5232558-4.2906977 1.5813953-5.783721 1.0581396-1.4976744 2.5139535-2.3651162 4.3651163-2.6186046l-.0069767-4.7z" fill="#3456fa"/><path d="m48.294186 15.3237209.0069768 4.7465117c1.6651163.4186046 2.9953488 1.3837209 4.0046512 2.8930232 1.0023255 1.5093023 1.5674418 3.3930233 1.6860465 5.6581395l-3.7069768-.2744186c-.0790697-1.2837209-.4604651-2.3255814-1.144186-3.1255814-.6813954-.7976744-1.572093-1.244186-2.6651163-1.3255813-1.1697674-.0883721-2.1069767.2604651-2.8046512 1.0418604-.7023255.7790698-1.0465116 1.855814-1.0465116 3.2395349 0 .5069767.0604651.9674419.1860465 1.3930233.1186047.4279069.3116279.8209302.5697675 1.1767441.516279.7418605 1.6186046 1.3883721 3.3023255 1.9395349 1.0046512.327907 1.7720931.6232558 2.3.8906977 1.8441861.8906977 3.2372093 2.1069767 4.1930233 3.6488372.9581395 1.5441861 1.4372093 3.3372093 1.4395349 5.3883721.0046511 2.5953488-.5767442 4.7604651-1.7348837 6.4813954-1.1627907 1.7302325-2.6697675 2.6674418-4.5255814 2.8302325l.0093023 5.7-3.4534884-.2558139-.0093023-5.4790698c-2.072093-.4813954-3.7162791-1.6186047-4.9372093-3.4069768-1.2186047-1.7930232-1.8348837-4.0023255-1.855814-6.6302325l3.5720931.2651163c.0790697 1.7744186.5116279 3.1302325 1.2906976 4.0790697.783721.9488372 1.9116279 1.4813954 3.3883721 1.5906977 1.3534884.1 2.4325582-.2930232 3.2348837-1.1883721.8023256-.8883721 1.2023256-2.1255814 1.2-3.7162791 0-.5674418-.0511627-1.0860465-.1488372-1.5697674-.0953488-.4813953-.2348837-.9023256-.4186046-1.2581395-.6046512-1.1860465-1.8534884-2.1116279-3.7465116-2.7744186-.3116279-.1069768-.5418605-.1930233-.6953489-.2465117-2.3558139-.8790697-4.0953488-2.0302325-5.2069767-3.4627907-1.1186047-1.4348837-1.6744186-3.2372093-1.6767442-5.4046511-.0046512-2.3627907.5232558-4.2906977 1.5790698-5.783721 1.0581395-1.4976744 2.516279-2.3651162 4.3651162-2.6186046l-.0069767-4.7z" fill="#7189fb"/></g><g transform="translate(126 86)"><path d="m5.97696408 25.0837286c-3.33338136-3.9336371-5.58948359-8.7543634-5.21248758-14.1561258 1.08623047-15.5639814 22.6365882-12.14010379 26.828579-4.28474249 4.1919907 7.85536129 3.6938732 27.78113669-1.7239013 29.18510879-2.160601.5599022-6.7633236-.8116339-11.4478213-3.650292l2.9403692 20.913232h-17.3617021z" fill="#e7e8ed" transform="translate(.723404 2.909091)"/><path d="m20.6594778 10.6912069c-2.3560338 1.3249542-4.0327477 3.807673-6.0511047 7.0642623-.49158-.1942474-1.0269467-.3009237-1.5870965-.3009237-2.3971508 0-4.34042554 1.9536665-4.34042554 4.3636363 0 1.2234315.50080688 2.3292677 1.30756406 3.1216102-1.00431726 1.4251674-2.12986626 2.9139423-3.41962506 4.4501645-4.81306035-2.9030823-8.3928977-11.3642075-3.79734853-19.53232162 3.95397213-16.36132469 26.35885667-6.2060286 30.66937017-8.96543306.9421959 5.93724211-2.0968287 10.72456848-12.7813339 9.79900508z" fill="#2944c8"/></g><g transform="translate(80 203)"><path d="m40.8135593 0 26.4231081 92.6254485 19.2785727 68.2699485h14.0610309l-20.486239-160.895397z" fill="#9ea3b7"/><path d="m33.7472324 0c-.6111639 47.7402303-2.6952216 73.7790492-3.3369187 78.1164567s-10.3444936 31.9303873-29.10838935 82.7789403h14.56627585c23.8878749-48.780498 37.2226978-76.3734781 40.0044688-82.7789403s11.3665875-32.4442811 24.2968225-78.1164567z" fill="#cfd1db"/><g fill="#0f1d5e"><path d="m0 15.2887029.72881356-15.2887029h15.30508474c7.2572363 5.09623431 16.7318126 9.22175732 28.4237288 12.376569v2.9121339h-27.6949152l-9.47457631-1.4560669v1.4560669z" transform="translate(0 158.711297)"/><path d="m0 15.2887029.72881356-15.2887029h15.30508474c7.2572363 5.09623431 16.7318126 9.22175732 28.4237288 12.376569v2.9121339h-27.6949152l-9.47457631-1.4560669v1.4560669z" transform="translate(84.542373 158.711297)"/></g></g><g transform="translate(100 126)"><path d="m59.4143509 31.2153425 25.2610078-13.8972659c4.2007509-5.0107293 8.3396606-8.9022627 12.4167292-11.67460013 1.2458209-.52243727 3.4244461-.83865363 1.3870176 2.79376313-2.0374286 3.6324168-4.0178624 7.5452148-2.9798727 8.6642838 1.0379896 1.119069 3.6263099-.4442211 4.8646162 1.4151216.825537 1.2395617-3.5964035 3.1977204-13.2658216 5.8744758l-18.3552008 16.8813624zm39.5634269 11.7255058 11.0960802-6.1228766c1.556937-5.950837 3.418066-8.9449043 5.583386-8.9822019 1.663417-.7774343-1.233411 6.7420039 1.9199 6.0899196 3.153311-.6520844 10.849642-6.4017376 12.175758-5.2343408 1.961904 1.7270885.21255 7.0302508-1.848604 9.66829-3.852295 4.9304921-7.041829 6.6165717-14.925257 8.8245029-4.121863 1.1544205-8.578326 3.4683569-13.3693891 6.9418093z" fill="#e7e8ed"/><path d="m47.9321594 25.4161095c8.7537846 1.2914024 20.7010492 1.2831429 34.3912499-4.6756813l3.1507511 11.7122128c-9.9312027 7.1915985-23.1039118 12.3063928-33.6019107 10.3387433-8.2730017-1.5506163-10.9209992-12.3201072-3.9400903-17.3752748z" fill="#2944c8" transform="matrix(.98768834 -.15643447 .15643447 .98768834 -4.205957 10.514563)"/><path d="m59.0258834 45.8806264c9.3932751 2.3531054 25.1452163-.4218561 47.2558236-8.3248843 5.484344 11.3968993 8.019619 19.5220144 7.605825 24.3753453-18.967644 9.9523003-35.2245521 14.3895225-48.6180726 14.6824468.425628 7.9827776-.5416912 15.5785746-3.7912083 22.5191031-6.6804559 14.2685497-45.7982368 1.0542817-58.95083348 3.6551727-8.23654276-26.8689139 7.68906188-37.7883318 7.70187588-54.9806288.0140326-18.8273973 15.0641938-47.8071812 17.2785236-47.8071812h20.1934675c1.1141918 14.3787313 6.7222291 30.2253391 11.3245988 45.8806264z" fill="#3456fa"/></g></g></svg>